<svg xmlns="http://www.w3.org/2000/svg" xmlns:xlink="http://www.w3.org/1999/xlink" width="500" zoomAndPan="magnify" viewBox="0 0 375 374.999991" height="500" preserveAspectRatio="xMidYMid meet" version="1.0"><defs><g/><clipPath id="8ad0d8d199"><path d="M 7.167969 120.160156 L 110 120.160156 L 110 297.328125 L 7.167969 297.328125 Z M 7.167969 120.160156 " clip-rule="nonzero"/></clipPath></defs><g fill="#9900cc" fill-opacity="1"><g transform="translate(153.054429, 206.405065)"><g><path d="M 32.34375 -29.953125 C 32.75 -29.953125 33.09375 -29.8125 33.375 -29.53125 C 33.65625 -29.25 33.796875 -28.894531 33.796875 -28.46875 L 33.796875 -1.5 C 33.796875 -1.082031 33.65625 -0.726562 33.375 -0.4375 C 33.09375 -0.144531 32.75 0 32.34375 0 C 31.90625 0 31.535156 -0.144531 31.234375 -0.4375 C 30.941406 -0.726562 30.796875 -1.082031 30.796875 -1.5 L 30.796875 -23.203125 L 20.140625 -1.421875 C 19.828125 -0.929688 19.390625 -0.6875 18.828125 -0.6875 C 18.191406 -0.6875 17.734375 -0.992188 17.453125 -1.609375 L 6.828125 -22.859375 L 6.828125 -1.5 C 6.828125 -1.082031 6.6875 -0.726562 6.40625 -0.4375 C 6.125 -0.144531 5.765625 0 5.328125 0 C 4.921875 0 4.570312 -0.144531 4.28125 -0.4375 C 3.988281 -0.726562 3.84375 -1.082031 3.84375 -1.5 L 3.84375 -28.46875 C 3.84375 -28.894531 3.988281 -29.25 4.28125 -29.53125 C 4.570312 -29.8125 4.921875 -29.953125 5.328125 -29.953125 C 5.921875 -29.953125 6.367188 -29.695312 6.671875 -29.1875 L 18.953125 -4.796875 L 31 -29.1875 C 31.300781 -29.695312 31.75 -29.953125 32.34375 -29.953125 Z M 32.34375 -29.953125 "/></g></g></g><g fill="#9900cc" fill-opacity="1"><g transform="translate(190.677707, 206.405065)"><g><path d="M 5.328125 0 C 4.921875 0 4.570312 -0.144531 4.28125 -0.4375 C 3.988281 -0.726562 3.84375 -1.082031 3.84375 -1.5 L 3.84375 -28.46875 C 3.84375 -28.894531 3.988281 -29.25 4.28125 -29.53125 C 4.570312 -29.8125 4.921875 -29.953125 5.328125 -29.953125 L 23.328125 -29.953125 C 23.753906 -29.953125 24.109375 -29.8125 24.390625 -29.53125 C 24.671875 -29.25 24.8125 -28.90625 24.8125 -28.5 C 24.8125 -28.09375 24.671875 -27.753906 24.390625 -27.484375 C 24.109375 -27.210938 23.753906 -27.078125 23.328125 -27.078125 L 6.828125 -27.078125 L 6.828125 -16.5 L 18.828125 -16.5 C 19.265625 -16.5 19.625 -16.359375 19.90625 -16.078125 C 20.1875 -15.796875 20.328125 -15.445312 20.328125 -15.03125 C 20.328125 -14.625 20.179688 -14.28125 19.890625 -14 C 19.597656 -13.71875 19.242188 -13.578125 18.828125 -13.578125 L 6.828125 -13.578125 L 6.828125 -2.875 L 23.328125 -2.875 C 23.753906 -2.875 24.109375 -2.738281 24.390625 -2.46875 C 24.671875 -2.207031 24.8125 -1.867188 24.8125 -1.453125 C 24.8125 -1.046875 24.671875 -0.703125 24.390625 -0.421875 C 24.109375 -0.140625 23.753906 0 23.328125 0 Z M 5.328125 0 "/></g></g></g><g fill="#9900cc" fill-opacity="1"><g transform="translate(217.217279, 206.405065)"><g><path d="M 25.625 -14.953125 C 26.0625 -14.953125 26.421875 -14.816406 26.703125 -14.546875 C 26.984375 -14.285156 27.125 -13.9375 27.125 -13.5 L 27.125 -3.984375 C 27.125 -3.554688 26.984375 -3.203125 26.703125 -2.921875 C 24.316406 -0.710938 21.179688 0.390625 17.296875 0.390625 C 14.585938 0.390625 12.09375 -0.300781 9.8125 -1.6875 C 7.539062 -3.070312 5.734375 -4.9375 4.390625 -7.28125 C 3.046875 -9.632812 2.375 -12.207031 2.375 -15 C 2.375 -17.757812 3.039062 -20.316406 4.375 -22.671875 C 5.707031 -25.023438 7.507812 -26.890625 9.78125 -28.265625 C 12.0625 -29.648438 14.566406 -30.34375 17.296875 -30.34375 C 19.140625 -30.34375 20.816406 -30.070312 22.328125 -29.53125 C 23.835938 -29 25.296875 -28.144531 26.703125 -26.96875 C 26.984375 -26.757812 27.125 -26.460938 27.125 -26.078125 C 27.125 -25.878906 27.070312 -25.695312 26.96875 -25.53125 C 26.863281 -25.363281 26.722656 -25.238281 26.546875 -25.15625 C 26.492188 -24.976562 26.378906 -24.832031 26.203125 -24.71875 C 26.023438 -24.601562 25.832031 -24.546875 25.625 -24.546875 C 25.269531 -24.546875 24.953125 -24.675781 24.671875 -24.9375 C 23.671875 -25.832031 22.582031 -26.484375 21.40625 -26.890625 C 20.226562 -27.296875 18.859375 -27.5 17.296875 -27.5 C 15.148438 -27.5 13.15625 -26.929688 11.3125 -25.796875 C 9.46875 -24.660156 8.003906 -23.128906 6.921875 -21.203125 C 5.835938 -19.285156 5.296875 -17.21875 5.296875 -15 C 5.296875 -12.71875 5.832031 -10.617188 6.90625 -8.703125 C 7.976562 -6.785156 9.4375 -5.265625 11.28125 -4.140625 C 13.125 -3.015625 15.128906 -2.453125 17.296875 -2.453125 C 19.773438 -2.453125 22.078125 -3.179688 24.203125 -4.640625 L 24.203125 -12.3125 L 18.21875 -12.3125 C 17.78125 -12.3125 17.421875 -12.4375 17.140625 -12.6875 C 16.859375 -12.945312 16.71875 -13.269531 16.71875 -13.65625 C 16.71875 -14.039062 16.859375 -14.351562 17.140625 -14.59375 C 17.421875 -14.832031 17.78125 -14.953125 18.21875 -14.953125 Z M 25.625 -14.953125 "/></g></g></g><g fill="#9900cc" fill-opacity="1"><g transform="translate(246.786656, 206.405065)"><g><path d="M 26.3125 -2.109375 C 26.414062 -1.929688 26.46875 -1.726562 26.46875 -1.5 C 26.46875 -1.082031 26.316406 -0.726562 26.015625 -0.4375 C 25.722656 -0.144531 25.375 0 24.96875 0 C 24.300781 0 23.828125 -0.304688 23.546875 -0.921875 L 20.984375 -7.140625 L 6.140625 -7.140625 L 3.5625 -0.921875 C 3.363281 -0.304688 2.90625 0 2.1875 0 C 1.75 0 1.394531 -0.144531 1.125 -0.4375 C 0.863281 -0.726562 0.734375 -1.082031 0.734375 -1.5 C 0.734375 -1.75 0.769531 -1.960938 0.84375 -2.140625 L 12.125 -28.921875 C 12.40625 -29.609375 12.890625 -29.953125 13.578125 -29.953125 C 14.265625 -29.953125 14.738281 -29.609375 15 -28.921875 Z M 7.21875 -9.703125 L 19.953125 -9.703125 L 13.578125 -25.09375 Z M 7.21875 -9.703125 "/></g></g></g><g fill="#9900cc" fill-opacity="1"><g transform="translate(273.748095, 206.405065)"><g><path d="M 5.53125 0 C 5.007812 0 4.597656 -0.132812 4.296875 -0.40625 C 3.992188 -0.675781 3.84375 -1.039062 3.84375 -1.5 L 3.84375 -28.46875 C 3.84375 -28.894531 3.984375 -29.25 4.265625 -29.53125 C 4.546875 -29.8125 4.898438 -29.953125 5.328125 -29.953125 L 14.65625 -29.953125 C 16.1875 -29.953125 17.570312 -29.625 18.8125 -28.96875 C 20.050781 -28.320312 21.035156 -27.421875 21.765625 -26.265625 C 22.492188 -25.117188 22.859375 -23.832031 22.859375 -22.40625 C 22.859375 -21.050781 22.492188 -19.832031 21.765625 -18.75 C 21.035156 -17.675781 20.054688 -16.847656 18.828125 -16.265625 C 20.597656 -15.773438 21.992188 -14.894531 23.015625 -13.625 C 24.035156 -12.363281 24.546875 -10.773438 24.546875 -8.859375 C 24.546875 -7.148438 24.148438 -5.625 23.359375 -4.28125 C 22.566406 -2.9375 21.472656 -1.882812 20.078125 -1.125 C 18.679688 -0.375 17.09375 0 15.3125 0 Z M 14.65625 -17.453125 C 16.21875 -17.453125 17.488281 -17.890625 18.46875 -18.765625 C 19.457031 -19.648438 19.953125 -20.863281 19.953125 -22.40625 C 19.953125 -23.882812 19.460938 -25.03125 18.484375 -25.84375 C 17.515625 -26.664062 16.238281 -27.078125 14.65625 -27.078125 L 6.828125 -27.078125 L 6.828125 -17.453125 Z M 15.3125 -2.875 C 17.175781 -2.875 18.6875 -3.414062 19.84375 -4.5 C 21.007812 -5.59375 21.59375 -7.046875 21.59375 -8.859375 C 21.59375 -10.597656 21.007812 -11.984375 19.84375 -13.015625 C 18.6875 -14.054688 17.175781 -14.578125 15.3125 -14.578125 L 6.828125 -14.578125 L 6.828125 -2.875 Z M 15.3125 -2.875 "/></g></g></g><g fill="#9900cc" fill-opacity="1"><g transform="translate(300.402711, 206.405065)"><g><path d="M 17.6875 0.390625 C 14.769531 0.390625 12.144531 -0.273438 9.8125 -1.609375 C 7.488281 -2.941406 5.664062 -4.773438 4.34375 -7.109375 C 3.03125 -9.453125 2.375 -12.082031 2.375 -15 C 2.375 -17.914062 3.03125 -20.535156 4.34375 -22.859375 C 5.664062 -25.191406 7.488281 -27.019531 9.8125 -28.34375 C 12.144531 -29.675781 14.769531 -30.34375 17.6875 -30.34375 C 20.570312 -30.34375 23.179688 -29.675781 25.515625 -28.34375 C 27.859375 -27.019531 29.6875 -25.191406 31 -22.859375 C 32.320312 -20.535156 32.984375 -17.914062 32.984375 -15 C 32.984375 -12.082031 32.320312 -9.453125 31 -7.109375 C 29.6875 -4.773438 27.859375 -2.941406 25.515625 -1.609375 C 23.179688 -0.273438 20.570312 0.390625 17.6875 0.390625 Z M 17.6875 -2.453125 C 20.007812 -2.453125 22.109375 -3 23.984375 -4.09375 C 25.867188 -5.195312 27.347656 -6.703125 28.421875 -8.609375 C 29.492188 -10.515625 30.03125 -12.644531 30.03125 -15 C 30.03125 -17.320312 29.492188 -19.4375 28.421875 -21.34375 C 27.347656 -23.25 25.867188 -24.75 23.984375 -25.84375 C 22.109375 -26.945312 20.007812 -27.5 17.6875 -27.5 C 15.332031 -27.5 13.210938 -26.945312 11.328125 -25.84375 C 9.453125 -24.75 7.976562 -23.25 6.90625 -21.34375 C 5.832031 -19.4375 5.296875 -17.320312 5.296875 -15 C 5.296875 -12.644531 5.832031 -10.515625 6.90625 -8.609375 C 7.976562 -6.703125 9.453125 -5.195312 11.328125 -4.09375 C 13.210938 -3 15.332031 -2.453125 17.6875 -2.453125 Z M 17.6875 -2.453125 "/></g></g></g><g fill="#9900cc" fill-opacity="1"><g transform="translate(335.724875, 206.405065)"><g><path d="M 25.046875 -2.421875 C 25.273438 -2.109375 25.390625 -1.785156 25.390625 -1.453125 C 25.390625 -1.046875 25.257812 -0.703125 25 -0.421875 C 24.75 -0.140625 24.40625 0 23.96875 0 C 23.457031 0 23.078125 -0.175781 22.828125 -0.53125 L 13.65625 -13.234375 L 4.296875 -0.453125 C 4.035156 -0.148438 3.675781 0 3.21875 0 C 2.78125 0 2.429688 -0.132812 2.171875 -0.40625 C 1.921875 -0.675781 1.796875 -1 1.796875 -1.375 C 1.796875 -1.757812 1.910156 -2.109375 2.140625 -2.421875 L 11.625 -15.3125 L 2.765625 -27.625 C 2.554688 -27.957031 2.453125 -28.265625 2.453125 -28.546875 C 2.453125 -28.921875 2.578125 -29.25 2.828125 -29.53125 C 3.085938 -29.8125 3.425781 -29.953125 3.84375 -29.953125 C 4.351562 -29.953125 4.734375 -29.773438 4.984375 -29.421875 L 13.6875 -17.375 L 22.515625 -29.421875 C 22.796875 -29.773438 23.179688 -29.953125 23.671875 -29.953125 C 24.078125 -29.953125 24.40625 -29.804688 24.65625 -29.515625 C 24.914062 -29.222656 25.046875 -28.882812 25.046875 -28.5 C 25.046875 -28.164062 24.957031 -27.875 24.78125 -27.625 L 15.734375 -15.34375 Z M 25.046875 -2.421875 "/></g></g></g><g fill="#ffffff" fill-opacity="1"><g transform="translate(153.054429, 219.193654)"><g><path d="M 6.859375 -8.875 C 6.984375 -8.875 7.082031 -8.832031 7.15625 -8.75 C 7.226562 -8.675781 7.265625 -8.582031 7.265625 -8.46875 C 7.265625 -8.351562 7.226562 -8.253906 7.15625 -8.171875 C 7.082031 -8.097656 6.984375 -8.0625 6.859375 -8.0625 L 4.15625 -8.0625 L 4.15625 -0.4375 C 4.15625 -0.320312 4.113281 -0.21875 4.03125 -0.125 C 3.945312 -0.0390625 3.84375 0 3.71875 0 C 3.59375 0 3.484375 -0.0390625 3.390625 -0.125 C 3.304688 -0.21875 3.265625 -0.320312 3.265625 -0.4375 L 3.265625 -8.0625 L 0.578125 -8.0625 C 0.453125 -8.0625 0.351562 -8.097656 0.28125 -8.171875 C 0.207031 -8.253906 0.171875 -8.351562 0.171875 -8.46875 C 0.171875 -8.582031 0.207031 -8.675781 0.28125 -8.75 C 0.351562 -8.832031 0.453125 -8.875 0.578125 -8.875 Z M 6.859375 -8.875 "/></g></g></g><g fill="#ffffff" fill-opacity="1"><g transform="translate(163.890275, 219.193654)"><g><path d="M 1.578125 0 C 1.453125 0 1.347656 -0.0390625 1.265625 -0.125 C 1.179688 -0.21875 1.140625 -0.320312 1.140625 -0.4375 L 1.140625 -8.421875 C 1.140625 -8.554688 1.179688 -8.664062 1.265625 -8.75 C 1.347656 -8.832031 1.453125 -8.875 1.578125 -8.875 L 6.90625 -8.875 C 7.03125 -8.875 7.132812 -8.832031 7.21875 -8.75 C 7.300781 -8.664062 7.34375 -8.5625 7.34375 -8.4375 C 7.34375 -8.320312 7.300781 -8.222656 7.21875 -8.140625 C 7.132812 -8.054688 7.03125 -8.015625 6.90625 -8.015625 L 2.015625 -8.015625 L 2.015625 -4.890625 L 5.578125 -4.890625 C 5.703125 -4.890625 5.804688 -4.847656 5.890625 -4.765625 C 5.972656 -4.679688 6.015625 -4.578125 6.015625 -4.453125 C 6.015625 -4.328125 5.972656 -4.222656 5.890625 -4.140625 C 5.804688 -4.054688 5.703125 -4.015625 5.578125 -4.015625 L 2.015625 -4.015625 L 2.015625 -0.859375 L 6.90625 -0.859375 C 7.03125 -0.859375 7.132812 -0.816406 7.21875 -0.734375 C 7.300781 -0.648438 7.34375 -0.550781 7.34375 -0.4375 C 7.34375 -0.3125 7.300781 -0.207031 7.21875 -0.125 C 7.132812 -0.0390625 7.03125 0 6.90625 0 Z M 1.578125 0 "/></g></g></g><g fill="#ffffff" fill-opacity="1"><g transform="translate(175.146378, 219.193654)"><g><path d="M 1.578125 0 C 1.453125 0 1.347656 -0.0390625 1.265625 -0.125 C 1.179688 -0.21875 1.140625 -0.320312 1.140625 -0.4375 L 1.140625 -8.421875 C 1.140625 -8.554688 1.179688 -8.664062 1.265625 -8.75 C 1.347656 -8.832031 1.453125 -8.875 1.578125 -8.875 C 1.703125 -8.875 1.804688 -8.832031 1.890625 -8.75 C 1.972656 -8.664062 2.015625 -8.554688 2.015625 -8.421875 L 2.015625 -4.890625 L 7.5625 -4.890625 L 7.5625 -8.421875 C 7.5625 -8.554688 7.601562 -8.664062 7.6875 -8.75 C 7.78125 -8.832031 7.890625 -8.875 8.015625 -8.875 C 8.140625 -8.875 8.242188 -8.832031 8.328125 -8.75 C 8.410156 -8.664062 8.453125 -8.554688 8.453125 -8.421875 L 8.453125 -0.4375 C 8.453125 -0.320312 8.410156 -0.21875 8.328125 -0.125 C 8.242188 -0.0390625 8.140625 0 8.015625 0 C 7.890625 0 7.78125 -0.0390625 7.6875 -0.125 C 7.601562 -0.21875 7.5625 -0.320312 7.5625 -0.4375 L 7.5625 -4.09375 L 2.015625 -4.09375 L 2.015625 -0.4375 C 2.015625 -0.320312 1.972656 -0.21875 1.890625 -0.125 C 1.804688 -0.0390625 1.703125 0 1.578125 0 Z M 1.578125 0 "/></g></g></g><g fill="#ffffff" fill-opacity="1"><g transform="translate(188.128942, 219.193654)"><g><path d="M 5.125 0.109375 C 4.320312 0.109375 3.582031 -0.09375 2.90625 -0.5 C 2.226562 -0.90625 1.691406 -1.457031 1.296875 -2.15625 C 0.898438 -2.851562 0.703125 -3.613281 0.703125 -4.4375 C 0.703125 -5.257812 0.898438 -6.019531 1.296875 -6.71875 C 1.691406 -7.414062 2.222656 -7.96875 2.890625 -8.375 C 3.566406 -8.78125 4.3125 -8.984375 5.125 -8.984375 C 5.664062 -8.984375 6.160156 -8.90625 6.609375 -8.75 C 7.054688 -8.59375 7.488281 -8.335938 7.90625 -7.984375 C 7.988281 -7.921875 8.03125 -7.832031 8.03125 -7.71875 C 8.03125 -7.664062 8.015625 -7.613281 7.984375 -7.5625 C 7.953125 -7.507812 7.910156 -7.472656 7.859375 -7.453125 C 7.847656 -7.398438 7.8125 -7.359375 7.75 -7.328125 C 7.695312 -7.296875 7.644531 -7.28125 7.59375 -7.28125 C 7.476562 -7.28125 7.378906 -7.316406 7.296875 -7.390625 C 7.003906 -7.648438 6.679688 -7.835938 6.328125 -7.953125 C 5.984375 -8.078125 5.582031 -8.140625 5.125 -8.140625 C 4.488281 -8.140625 3.894531 -7.972656 3.34375 -7.640625 C 2.800781 -7.304688 2.367188 -6.851562 2.046875 -6.28125 C 1.722656 -5.71875 1.5625 -5.101562 1.5625 -4.4375 C 1.5625 -3.769531 1.71875 -3.148438 2.03125 -2.578125 C 2.351562 -2.015625 2.785156 -1.566406 3.328125 -1.234375 C 3.878906 -0.898438 4.476562 -0.734375 5.125 -0.734375 C 5.945312 -0.734375 6.691406 -0.992188 7.359375 -1.515625 C 7.441406 -1.578125 7.523438 -1.609375 7.609375 -1.609375 C 7.722656 -1.609375 7.820312 -1.566406 7.90625 -1.484375 C 7.988281 -1.410156 8.03125 -1.3125 8.03125 -1.1875 C 8.03125 -1.0625 7.988281 -0.953125 7.90625 -0.859375 C 7.195312 -0.210938 6.269531 0.109375 5.125 0.109375 Z M 5.125 0.109375 "/></g></g></g><g fill="#ffffff" fill-opacity="1"><g transform="translate(200.282346, 219.193654)"><g><path d="M 1.578125 0 C 1.453125 0 1.347656 -0.0390625 1.265625 -0.125 C 1.179688 -0.207031 1.140625 -0.3125 1.140625 -0.4375 L 1.140625 -8.421875 C 1.140625 -8.554688 1.179688 -8.664062 1.265625 -8.75 C 1.347656 -8.832031 1.453125 -8.875 1.578125 -8.875 C 1.710938 -8.875 1.828125 -8.820312 1.921875 -8.71875 L 7.34375 -1.578125 L 7.34375 -8.421875 C 7.34375 -8.554688 7.382812 -8.664062 7.46875 -8.75 C 7.5625 -8.832031 7.671875 -8.875 7.796875 -8.875 C 7.921875 -8.875 8.023438 -8.832031 8.109375 -8.75 C 8.191406 -8.664062 8.234375 -8.554688 8.234375 -8.421875 L 8.234375 -0.4375 C 8.234375 -0.320312 8.191406 -0.21875 8.109375 -0.125 C 8.023438 -0.0390625 7.921875 0 7.796875 0 C 7.640625 0 7.53125 -0.046875 7.46875 -0.140625 L 2.015625 -7.28125 L 2.015625 -0.4375 C 2.015625 -0.320312 1.972656 -0.21875 1.890625 -0.125 C 1.804688 -0.0390625 1.703125 0 1.578125 0 Z M 1.578125 0 "/></g></g></g><g fill="#ffffff" fill-opacity="1"><g transform="translate(213.049108, 219.193654)"><g><path d="M 5.234375 0.109375 C 4.367188 0.109375 3.59375 -0.0820312 2.90625 -0.46875 C 2.21875 -0.863281 1.675781 -1.40625 1.28125 -2.09375 C 0.894531 -2.789062 0.703125 -3.570312 0.703125 -4.4375 C 0.703125 -5.300781 0.894531 -6.078125 1.28125 -6.765625 C 1.675781 -7.453125 2.21875 -7.992188 2.90625 -8.390625 C 3.59375 -8.785156 4.367188 -8.984375 5.234375 -8.984375 C 6.085938 -8.984375 6.859375 -8.785156 7.546875 -8.390625 C 8.242188 -7.992188 8.785156 -7.453125 9.171875 -6.765625 C 9.566406 -6.078125 9.765625 -5.300781 9.765625 -4.4375 C 9.765625 -3.570312 9.566406 -2.789062 9.171875 -2.09375 C 8.785156 -1.40625 8.242188 -0.863281 7.546875 -0.46875 C 6.859375 -0.0820312 6.085938 0.109375 5.234375 0.109375 Z M 5.234375 -0.734375 C 5.921875 -0.734375 6.539062 -0.894531 7.09375 -1.21875 C 7.65625 -1.539062 8.09375 -1.984375 8.40625 -2.546875 C 8.726562 -3.109375 8.890625 -3.738281 8.890625 -4.4375 C 8.890625 -5.125 8.726562 -5.75 8.40625 -6.3125 C 8.09375 -6.882812 7.65625 -7.332031 7.09375 -7.65625 C 6.539062 -7.976562 5.921875 -8.140625 5.234375 -8.140625 C 4.535156 -8.140625 3.90625 -7.976562 3.34375 -7.65625 C 2.789062 -7.332031 2.351562 -6.882812 2.03125 -6.3125 C 1.71875 -5.75 1.5625 -5.125 1.5625 -4.4375 C 1.5625 -3.738281 1.71875 -3.109375 2.03125 -2.546875 C 2.351562 -1.984375 2.789062 -1.539062 3.34375 -1.21875 C 3.90625 -0.894531 4.535156 -0.734375 5.234375 -0.734375 Z M 5.234375 -0.734375 "/></g></g></g><g fill="#ffffff" fill-opacity="1"><g transform="translate(226.906266, 219.193654)"><g><path d="M 1.578125 0 C 1.453125 0 1.347656 -0.0390625 1.265625 -0.125 C 1.179688 -0.21875 1.140625 -0.320312 1.140625 -0.4375 L 1.140625 -8.421875 C 1.140625 -8.546875 1.179688 -8.648438 1.265625 -8.734375 C 1.347656 -8.828125 1.453125 -8.875 1.578125 -8.875 C 1.703125 -8.875 1.804688 -8.832031 1.890625 -8.75 C 1.972656 -8.664062 2.015625 -8.554688 2.015625 -8.421875 L 2.015625 -0.84375 L 6.46875 -0.84375 C 6.59375 -0.84375 6.695312 -0.800781 6.78125 -0.71875 C 6.863281 -0.644531 6.90625 -0.546875 6.90625 -0.421875 C 6.90625 -0.296875 6.863281 -0.191406 6.78125 -0.109375 C 6.695312 -0.0351562 6.59375 0 6.46875 0 Z M 1.578125 0 "/></g></g></g><g fill="#ffffff" fill-opacity="1"><g transform="translate(237.492221, 219.193654)"><g><path d="M 5.234375 0.109375 C 4.367188 0.109375 3.59375 -0.0820312 2.90625 -0.46875 C 2.21875 -0.863281 1.675781 -1.40625 1.28125 -2.09375 C 0.894531 -2.789062 0.703125 -3.570312 0.703125 -4.4375 C 0.703125 -5.300781 0.894531 -6.078125 1.28125 -6.765625 C 1.675781 -7.453125 2.21875 -7.992188 2.90625 -8.390625 C 3.59375 -8.785156 4.367188 -8.984375 5.234375 -8.984375 C 6.085938 -8.984375 6.859375 -8.785156 7.546875 -8.390625 C 8.242188 -7.992188 8.785156 -7.453125 9.171875 -6.765625 C 9.566406 -6.078125 9.765625 -5.300781 9.765625 -4.4375 C 9.765625 -3.570312 9.566406 -2.789062 9.171875 -2.09375 C 8.785156 -1.40625 8.242188 -0.863281 7.546875 -0.46875 C 6.859375 -0.0820312 6.085938 0.109375 5.234375 0.109375 Z M 5.234375 -0.734375 C 5.921875 -0.734375 6.539062 -0.894531 7.09375 -1.21875 C 7.65625 -1.539062 8.09375 -1.984375 8.40625 -2.546875 C 8.726562 -3.109375 8.890625 -3.738281 8.890625 -4.4375 C 8.890625 -5.125 8.726562 -5.75 8.40625 -6.3125 C 8.09375 -6.882812 7.65625 -7.332031 7.09375 -7.65625 C 6.539062 -7.976562 5.921875 -8.140625 5.234375 -8.140625 C 4.535156 -8.140625 3.90625 -7.976562 3.34375 -7.65625 C 2.789062 -7.332031 2.351562 -6.882812 2.03125 -6.3125 C 1.71875 -5.75 1.5625 -5.125 1.5625 -4.4375 C 1.5625 -3.738281 1.71875 -3.109375 2.03125 -2.546875 C 2.351562 -1.984375 2.789062 -1.539062 3.34375 -1.21875 C 3.90625 -0.894531 4.535156 -0.734375 5.234375 -0.734375 Z M 5.234375 -0.734375 "/></g></g></g><g fill="#ffffff" fill-opacity="1"><g transform="translate(251.34938, 219.193654)"><g><path d="M 7.59375 -4.4375 C 7.71875 -4.4375 7.820312 -4.394531 7.90625 -4.3125 C 7.988281 -4.226562 8.03125 -4.125 8.03125 -4 L 8.03125 -1.1875 C 8.03125 -1.050781 7.988281 -0.941406 7.90625 -0.859375 C 7.195312 -0.210938 6.269531 0.109375 5.125 0.109375 C 4.320312 0.109375 3.582031 -0.09375 2.90625 -0.5 C 2.226562 -0.90625 1.691406 -1.457031 1.296875 -2.15625 C 0.898438 -2.851562 0.703125 -3.613281 0.703125 -4.4375 C 0.703125 -5.257812 0.898438 -6.019531 1.296875 -6.71875 C 1.691406 -7.414062 2.222656 -7.96875 2.890625 -8.375 C 3.566406 -8.78125 4.3125 -8.984375 5.125 -8.984375 C 5.664062 -8.984375 6.160156 -8.90625 6.609375 -8.75 C 7.054688 -8.59375 7.488281 -8.335938 7.90625 -7.984375 C 7.988281 -7.921875 8.03125 -7.832031 8.03125 -7.71875 C 8.03125 -7.664062 8.015625 -7.613281 7.984375 -7.5625 C 7.953125 -7.507812 7.910156 -7.472656 7.859375 -7.453125 C 7.847656 -7.398438 7.8125 -7.351562 7.75 -7.3125 C 7.695312 -7.28125 7.644531 -7.265625 7.59375 -7.265625 C 7.476562 -7.265625 7.378906 -7.304688 7.296875 -7.390625 C 7.003906 -7.648438 6.679688 -7.835938 6.328125 -7.953125 C 5.984375 -8.078125 5.582031 -8.140625 5.125 -8.140625 C 4.488281 -8.140625 3.894531 -7.972656 3.34375 -7.640625 C 2.800781 -7.304688 2.367188 -6.851562 2.046875 -6.28125 C 1.722656 -5.71875 1.5625 -5.101562 1.5625 -4.4375 C 1.5625 -3.769531 1.71875 -3.148438 2.03125 -2.578125 C 2.351562 -2.015625 2.785156 -1.566406 3.328125 -1.234375 C 3.878906 -0.898438 4.476562 -0.734375 5.125 -0.734375 C 5.851562 -0.734375 6.535156 -0.945312 7.171875 -1.375 L 7.171875 -3.640625 L 5.390625 -3.640625 C 5.265625 -3.640625 5.160156 -3.675781 5.078125 -3.75 C 4.992188 -3.832031 4.953125 -3.929688 4.953125 -4.046875 C 4.953125 -4.160156 4.992188 -4.253906 5.078125 -4.328125 C 5.160156 -4.398438 5.265625 -4.4375 5.390625 -4.4375 Z M 7.59375 -4.4375 "/></g></g></g><g fill="#ffffff" fill-opacity="1"><g transform="translate(263.502781, 219.193654)"><g><path d="M 1.578125 0 C 1.453125 0 1.347656 -0.0390625 1.265625 -0.125 C 1.179688 -0.21875 1.140625 -0.320312 1.140625 -0.4375 L 1.140625 -8.421875 C 1.140625 -8.554688 1.179688 -8.664062 1.265625 -8.75 C 1.347656 -8.832031 1.453125 -8.875 1.578125 -8.875 C 1.703125 -8.875 1.804688 -8.832031 1.890625 -8.75 C 1.972656 -8.664062 2.015625 -8.554688 2.015625 -8.421875 L 2.015625 -0.4375 C 2.015625 -0.320312 1.972656 -0.21875 1.890625 -0.125 C 1.804688 -0.0390625 1.703125 0 1.578125 0 Z M 1.578125 0 "/></g></g></g><g fill="#ffffff" fill-opacity="1"><g transform="translate(270.056527, 219.193654)"><g><path d="M 1.578125 0 C 1.453125 0 1.347656 -0.0390625 1.265625 -0.125 C 1.179688 -0.21875 1.140625 -0.320312 1.140625 -0.4375 L 1.140625 -8.421875 C 1.140625 -8.554688 1.179688 -8.664062 1.265625 -8.75 C 1.347656 -8.832031 1.453125 -8.875 1.578125 -8.875 L 6.90625 -8.875 C 7.03125 -8.875 7.132812 -8.832031 7.21875 -8.75 C 7.300781 -8.664062 7.34375 -8.5625 7.34375 -8.4375 C 7.34375 -8.320312 7.300781 -8.222656 7.21875 -8.140625 C 7.132812 -8.054688 7.03125 -8.015625 6.90625 -8.015625 L 2.015625 -8.015625 L 2.015625 -4.890625 L 5.578125 -4.890625 C 5.703125 -4.890625 5.804688 -4.847656 5.890625 -4.765625 C 5.972656 -4.679688 6.015625 -4.578125 6.015625 -4.453125 C 6.015625 -4.328125 5.972656 -4.222656 5.890625 -4.140625 C 5.804688 -4.054688 5.703125 -4.015625 5.578125 -4.015625 L 2.015625 -4.015625 L 2.015625 -0.859375 L 6.90625 -0.859375 C 7.03125 -0.859375 7.132812 -0.816406 7.21875 -0.734375 C 7.300781 -0.648438 7.34375 -0.550781 7.34375 -0.4375 C 7.34375 -0.3125 7.300781 -0.207031 7.21875 -0.125 C 7.132812 -0.0390625 7.03125 0 6.90625 0 Z M 1.578125 0 "/></g></g></g><g fill="#ffffff" fill-opacity="1"><g transform="translate(281.312627, 219.193654)"><g><path d="M 3.859375 0.109375 C 3.140625 0.109375 2.5 -0.0390625 1.9375 -0.34375 C 1.382812 -0.65625 0.988281 -1.070312 0.75 -1.59375 C 0.71875 -1.644531 0.703125 -1.703125 0.703125 -1.765625 C 0.703125 -1.878906 0.738281 -1.96875 0.8125 -2.03125 C 0.894531 -2.101562 1.003906 -2.140625 1.140625 -2.140625 C 1.234375 -2.140625 1.316406 -2.113281 1.390625 -2.0625 C 1.472656 -2.019531 1.535156 -1.953125 1.578125 -1.859375 C 1.753906 -1.523438 2.046875 -1.253906 2.453125 -1.046875 C 2.859375 -0.835938 3.328125 -0.734375 3.859375 -0.734375 C 4.484375 -0.734375 4.984375 -0.878906 5.359375 -1.171875 C 5.734375 -1.472656 5.921875 -1.894531 5.921875 -2.4375 C 5.921875 -2.90625 5.742188 -3.300781 5.390625 -3.625 C 5.046875 -3.957031 4.519531 -4.171875 3.8125 -4.265625 C 2.9375 -4.367188 2.242188 -4.640625 1.734375 -5.078125 C 1.234375 -5.523438 0.984375 -6.070312 0.984375 -6.71875 C 0.984375 -7.164062 1.109375 -7.5625 1.359375 -7.90625 C 1.609375 -8.25 1.945312 -8.515625 2.375 -8.703125 C 2.8125 -8.890625 3.304688 -8.984375 3.859375 -8.984375 C 4.460938 -8.984375 4.988281 -8.847656 5.4375 -8.578125 C 5.894531 -8.316406 6.253906 -7.972656 6.515625 -7.546875 C 6.566406 -7.460938 6.59375 -7.375 6.59375 -7.28125 C 6.59375 -7.132812 6.523438 -7.019531 6.390625 -6.9375 C 6.328125 -6.90625 6.253906 -6.890625 6.171875 -6.890625 C 6.085938 -6.890625 6.007812 -6.910156 5.9375 -6.953125 C 5.875 -6.992188 5.816406 -7.054688 5.765625 -7.140625 C 5.347656 -7.804688 4.707031 -8.140625 3.84375 -8.140625 C 3.238281 -8.140625 2.753906 -8.007812 2.390625 -7.75 C 2.035156 -7.5 1.859375 -7.132812 1.859375 -6.65625 C 1.859375 -5.769531 2.578125 -5.234375 4.015625 -5.046875 C 4.953125 -4.910156 5.648438 -4.617188 6.109375 -4.171875 C 6.566406 -3.734375 6.796875 -3.15625 6.796875 -2.4375 C 6.796875 -1.90625 6.664062 -1.445312 6.40625 -1.0625 C 6.15625 -0.675781 5.804688 -0.382812 5.359375 -0.1875 C 4.910156 0.0078125 4.410156 0.109375 3.859375 0.109375 Z M 3.859375 0.109375 "/></g></g></g><path fill="#ffffff" d="M 152.410156 233.226562 C 151.386719 232.300781 147.410156 228.355469 143.246094 211.761719 C 140.5 200.824219 138.671875 188.6875 137.464844 180.652344 C 137.027344 177.738281 136.679688 175.4375 136.371094 173.722656 C 136.183594 172.65625 136.015625 171.871094 135.847656 171.25 C 134.441406 166.003906 130.28125 165.386719 129.039062 165.320312 C 120.855469 164.910156 117.4375 174.421875 115.792969 179.003906 C 113.671875 184.917969 111.566406 192.945312 109.34375 201.4375 C 105.757812 215.121094 100.738281 234.277344 94.761719 244.777344 C 94.476562 245.277344 94.425781 245.878906 94.621094 246.417969 C 94.773438 246.839844 95.058594 247.199219 95.4375 247.433594 C 96.140625 247.863281 97.226562 248.332031 98.640625 248.332031 C 101.011719 248.332031 103.789062 247 106.679688 244.484375 C 111.015625 240.695312 114.234375 235.796875 115.996094 230.3125 C 118.628906 222.132812 120.921875 213.386719 123.105469 205.046875 C 123.824219 202.308594 124.648438 199.167969 125.507812 196.019531 C 129.132812 217.050781 134.21875 237.222656 143.761719 244.527344 C 153.734375 252.15625 180.488281 256.546875 202.484375 253.503906 C 236.214844 248.84375 256.894531 237.550781 256.894531 237.550781 C 227.285156 245.800781 169.640625 248.816406 152.410156 233.226562 " fill-opacity="1" fill-rule="nonzero"/><g clip-path="url(#8ad0d8d199)"><path fill="#9900cc" d="M 93.796875 251.128906 C 92.421875 250.378906 91.371094 249.148438 90.808594 247.683594 C 90.0625 245.738281 89.152344 242.871094 88.136719 238.664062 C 86.277344 230.972656 84.601562 221.226562 82.824219 210.902344 C 77.878906 182.152344 72.765625 152.425781 60.347656 141.15625 C 58.210938 139.214844 55.203125 138.597656 52.503906 139.542969 C 48.558594 140.921875 46.578125 144.78125 44.492188 150.980469 C 43.105469 155.097656 41.507812 160.921875 39.738281 168.289062 C 36.8125 180.46875 33.335938 197.199219 29.402344 218.027344 C 28.519531 222.699219 27.65625 227.363281 26.816406 231.953125 C 25.835938 221.371094 24.671875 210.105469 23.300781 198.871094 C 20.039062 172.175781 16.257812 150.777344 12.0625 135.273438 C 10.503906 129.5 8.878906 124.511719 7.167969 120.261719 C 7.167969 120.261719 16.785156 290.257812 16.804688 290.683594 C 16.976562 294.324219 19.867188 297.246094 23.503906 297.453125 C 27.144531 297.660156 30.347656 295.085938 30.933594 291.492188 C 30.984375 291.167969 36.265625 258.761719 42.542969 225.140625 C 49.367188 188.609375 53.730469 170.042969 56.390625 160.617188 C 61.980469 173.65625 65.8125 195.949219 68.800781 213.316406 C 74.257812 245.035156 77.296875 260.457031 86.746094 264.371094 C 88.835938 265.234375 93.042969 266.1875 97.78125 262.84375 C 102.292969 259.65625 106.066406 254.230469 109.324219 247.515625 C 102.050781 253.863281 96.644531 252.679688 93.796875 251.128906 " fill-opacity="1" fill-rule="nonzero"/></g></svg>